<svg width="23" height="23" viewBox="0 0 23 23" fill="none" xmlns="http://www.w3.org/2000/svg">
<path fill-rule="evenodd" clip-rule="evenodd" d="M9.60592 11.9798L4.35868 10.2307C2.00547 9.44631 0.828857 9.05411 0.828857 8.33335C0.828857 7.61259 2.00546 7.22039 4.35868 6.43598L18.8718 1.59826C20.5276 1.04633 21.3555 0.770364 21.7925 1.20738C22.2296 1.6444 21.9536 2.47229 21.4017 4.12808L16.5639 18.6412C15.7795 20.9945 15.3873 22.1711 14.6666 22.1711C13.9458 22.1711 13.5536 20.9945 12.7692 18.6412L11.0201 13.394L16.707 7.70712C17.0975 7.3166 17.0975 6.68343 16.707 6.29291C16.3165 5.90238 15.6833 5.90238 15.2928 6.29291L9.60592 11.9798Z" fill="#00071B"/>
</svg>
